<svg xmlns="http://www.w3.org/2000/svg" width="1200" height="720" viewBox="0 0 1200 720">
  <rect width="1200" height="720" fill="#f1f5f9"/>
  <rect x="0" y="0" width="1200" height="86" fill="#ffffff"/>
  <rect x="64" y="24" width="170" height="38" rx="8" fill="#2563eb"/>
  <rect x="64" y="128" width="760" height="460" rx="8" fill="#ffffff"/>
  <rect x="856" y="128" width="280" height="320" rx="8" fill="#ffffff"/>
  <rect x="96" y="170" width="110" height="110" rx="8" fill="#dbeafe"/>
  <rect x="232" y="176" width="330" height="24" rx="6" fill="#0f172a"/>
  <rect x="232" y="220" width="220" height="18" rx="6" fill="#94a3b8"/>
  <rect x="690" y="176" width="90" height="36" rx="8" fill="#e2e8f0"/>
  <rect x="96" y="318" width="110" height="110" rx="8" fill="#dbeafe"/>
  <rect x="232" y="324" width="330" height="24" rx="6" fill="#0f172a"/>
  <rect x="232" y="368" width="220" height="18" rx="6" fill="#94a3b8"/>
  <rect x="690" y="324" width="90" height="36" rx="8" fill="#e2e8f0"/>
  <rect x="888" y="380" width="216" height="48" rx="8" fill="#16a34a"/>
  <text x="64" y="700" font-family="Arial" font-size="24" fill="#0f172a">Cart: product ids in localStorage, latest product details fetched from backend, stock-safe quantities</text>
</svg>
