<svg xmlns="http://www.w3.org/2000/svg" width="1200" height="720" viewBox="0 0 1200 720">
  <rect width="1200" height="720" fill="#f1f5f9"/>
  <rect x="0" y="0" width="1200" height="86" fill="#ffffff"/>
  <rect x="64" y="24" width="170" height="38" rx="8" fill="#2563eb"/>
  <rect x="300" y="24" width="520" height="38" rx="8" fill="#e2e8f0"/>
  <rect x="64" y="120" width="230" height="520" rx="8" fill="#ffffff"/>
  <rect x="322" y="120" width="814" height="72" rx="8" fill="#ffffff"/>
  <rect x="322" y="220" width="180" height="44" rx="8" fill="#2563eb"/>
  <rect x="520" y="220" width="180" height="44" rx="8" fill="#ffffff"/>
  <rect x="718" y="220" width="180" height="44" rx="8" fill="#ffffff"/>
  <g fill="#ffffff">
    <rect x="322" y="296" width="188" height="260" rx="8"/>
    <rect x="530" y="296" width="188" height="260" rx="8"/>
    <rect x="738" y="296" width="188" height="260" rx="8"/>
    <rect x="946" y="296" width="188" height="260" rx="8"/>
  </g>
  <g fill="#dbeafe">
    <rect x="352" y="326" width="128" height="128" rx="8"/>
    <rect x="560" y="326" width="128" height="128" rx="8"/>
    <rect x="768" y="326" width="128" height="128" rx="8"/>
    <rect x="976" y="326" width="128" height="128" rx="8"/>
  </g>
  <text x="64" y="700" font-family="Arial" font-size="24" fill="#0f172a">Catalog: backend search, category filters, sorting, pagination, and skeleton loading</text>
</svg>
