<svg xmlns="http://www.w3.org/2000/svg" width="1200" height="720" viewBox="0 0 1200 720">
  <rect width="1200" height="720" fill="#f1f5f9"/>
  <rect x="0" y="0" width="1200" height="86" fill="#ffffff"/>
  <rect x="64" y="24" width="170" height="38" rx="8" fill="#2563eb"/>
  <rect x="300" y="24" width="520" height="38" rx="8" fill="#e2e8f0"/>
  <rect x="840" y="24" width="120" height="38" rx="8" fill="#2563eb"/>
  <rect x="64" y="122" width="220" height="360" rx="8" fill="#ffffff"/>
  <rect x="308" y="122" width="584" height="360" rx="8" fill="#0f172a"/>
  <rect x="932" y="122" width="204" height="360" rx="8" fill="#ffffff"/>
  <rect x="348" y="180" width="330" height="34" rx="6" fill="#bfdbfe"/>
  <rect x="348" y="234" width="420" height="62" rx="8" fill="#ffffff"/>
  <rect x="348" y="322" width="150" height="48" rx="8" fill="#2563eb"/>
  <rect x="64" y="522" width="250" height="130" rx="8" fill="#ffffff"/>
  <rect x="334" y="522" width="250" height="130" rx="8" fill="#ffffff"/>
  <rect x="604" y="522" width="250" height="130" rx="8" fill="#ffffff"/>
  <rect x="874" y="522" width="250" height="130" rx="8" fill="#ffffff"/>
  <text x="64" y="700" font-family="Arial" font-size="24" fill="#0f172a">Home: featured catalog, categories, and professional storefront sections</text>
</svg>
